<?xml version="1.0" encoding="UTF-8"?> <svg xmlns="http://www.w3.org/2000/svg" width="160" height="160" viewBox="0 0 160 160" fill="none"> <circle cx="80" cy="80" r="80" fill="#CF3226"></circle> <path d="M72.16 70.72C78.368 70.72 83.52 72.672 87.616 76.576C91.712 80.48 93.76 85.408 93.76 91.36C93.76 97.312 91.712 102.24 87.616 106.144C83.52 110.048 78.368 112 72.16 112H46.72V44.8H88V55.36H57.76V70.72H72.16ZM72.16 101.632C75.168 101.632 77.664 100.704 79.648 98.848C81.696 96.928 82.72 94.432 82.72 91.36C82.72 88.288 81.696 85.824 79.648 83.968C77.664 82.048 75.168 81.088 72.16 81.088H57.76V101.632H72.16Z" fill="white"></path> <path d="M102.51 91.2154L101.808 64.2617L102.812 45.088L115.275 45.7412L114.27 64.9149L110.659 91.6425L102.51 91.2154ZM110.658 111.83C109.178 113.162 107.448 113.777 105.467 113.673C103.485 113.569 101.829 112.777 100.496 111.298C99.1638 109.818 98.5495 108.087 98.6533 106.106C98.7572 104.125 99.517 102.466 100.933 101.13C102.413 99.7981 104.175 99.1855 106.22 99.2927C108.202 99.3965 109.858 100.188 111.191 101.668C112.523 103.148 113.137 104.878 113.034 106.86C112.93 108.841 112.138 110.498 110.658 111.83Z" fill="white"></path> </svg> 